<svg width="107" height="42" viewBox="0 0 107 42" fill="none" xmlns="http://www.w3.org/2000/svg">
<g clip-path="url(#clip0)">
<path d="M59.1213 18.5181L53.8076 10.3189V18.5181H51.1788V5.24316H53.528L58.8416 13.3866V5.24316H61.4705V18.5738H59.1213V18.5181Z" fill="white"/>
<path d="M64.5468 18.5181V5.24316H73.3283V7.58579H67.1197V10.7093H72.3774V13.0519H67.1197V16.287H73.3283V18.6296H64.5468V18.5181Z" fill="white"/>
<path d="M82.8369 18.5181L80.264 13.8886L77.6911 18.5181H74.7266L78.8657 11.7133L75.0063 5.24316H77.9707L80.3199 9.53798L82.6691 5.24316H85.6336L81.6623 11.7133L85.8014 18.5181H82.8369Z" fill="white"/>
<path d="M93.2404 7.53002V18.5181H90.6116V7.53002H87.1437V5.24316H96.7642V7.58579H93.2404V7.53002Z" fill="white"/>
<path d="M51.2347 35.5301V22.1995H60.0162V24.5421H53.8636V27.6656H59.1213V30.0082H53.8636V33.2433H60.0721V35.5859H51.2347V35.5301Z" fill="white"/>
<path d="M70.5876 35.5301L69.8045 33.1875H65.0502L64.2671 35.5301H61.5264L66.3926 22.1995H68.4621L73.3283 35.5301H70.5876ZM67.4553 26.1038L65.7773 30.9564H69.0774L67.4553 26.1038Z" fill="white"/>
<path d="M82.1657 35.5301L79.5369 30.2313H77.6351V35.5301H75.0063V22.1995H80.264C83.0047 22.1995 84.5708 24.0401 84.5708 26.2712C84.5708 28.1676 83.4522 29.2831 82.1098 29.7851L85.0742 35.5301H82.1657ZM80.1521 24.5421H77.6911V28.056H80.1521C81.2708 28.056 82.0538 27.3309 82.0538 26.2712C82.0538 25.2672 81.2708 24.5421 80.1521 24.5421Z" fill="white"/>
<path d="M92.0659 24.5421V35.5301H89.4929V24.5421H86.0251V22.1995H95.5896V24.5421H92.0659Z" fill="white"/>
<path d="M104.371 35.5301V29.9525H99.8406V35.5301H97.2117V22.1995H99.8406V27.6656H104.371V22.1995H107V35.5301H104.371Z" fill="white"/>
<path d="M35.909 6.13549C27.6869 -2.06372 14.3748 -2.06372 6.15265 6.13549C-2.06952 14.3347 -2.06952 27.6096 6.15265 35.8088C14.3748 44.008 27.6869 44.008 35.909 35.8088C44.1312 27.6096 44.1312 14.3347 35.909 6.13549ZM33.3921 33.5219C30.0361 36.6454 21.8698 33.6893 15.1019 26.9403C8.33404 20.1913 5.36958 11.769 8.6137 8.53389C11.9138 5.18728 16.3884 3.40242 21.0868 3.40242C25.7852 3.40242 30.2039 5.24306 33.5599 8.53389C40.3837 15.3387 40.4396 26.4383 33.6158 33.2988L33.5039 33.4662C33.448 33.4662 33.448 33.4662 33.3921 33.5219Z" fill="white"/>
</g>
<defs>
<clipPath id="clip0">
<rect width="107" height="42" fill="white"/>
</clipPath>
</defs>
</svg>
